<?xml version="1.0" encoding="utf-8"?>
<!-- Generator: Adobe Illustrator 24.1.0, SVG Export Plug-In . SVG Version: 6.00 Build 0)  -->
<svg version="1.1" id="Layer_1" xmlns="http://www.w3.org/2000/svg" xmlns:xlink="http://www.w3.org/1999/xlink" x="0px" y="0px"
	 viewBox="0 0 582 840.67" style="enable-background:new 0 0 582 840.67;" xml:space="preserve">
<style type="text/css">
	.st0{fill:#FFFFFF;}
	.st1{fill:none;}
	.st2{fill:#98D2D2;}
	.st3{fill:#F59193;}
</style>
<rect y="0" class="st0" width="582" height="840.67"/>
<g>
	<rect y="21.96" class="st1" width="582" height="840.67"/>
	<path class="st2" d="M35.78,115.78c32.03,13.68,67.65,15.96,102.46,16.66c34.82,0.69,70.09,0.02,103.9,8.35
		c58.07,14.31,106.14,53.48,156.58,85.6c43.04,27.41,88.84,50.14,134.55,72.82c27.97,13.88,60.4,28,89.24,16.04
		c27.98-11.6,41.14-43.14,50.66-71.89c16.26-49.15,30.12-100.13,28.18-151.87c-1.94-51.73-21.72-104.89-62.37-136.94
		c-43.12-34-101.61-39.4-156.48-41.6c-138.82-5.56-282.07-2.84-419.53,19.2C-36.91-51.83-69.26,70.92,35.78,115.78z"/>
</g>
<rect y="24" class="st1" width="582" height="840.67"/>
<path class="st3" d="M37.59,433.5c15.51,72.62-20.06,157.51,11.22,221.68c32.13,65.9,110.39,62.09,160.38,107.36
	c45.55,41.25,60.75,116.18,72.81,184.89c-101.9,2.71-203.8,5.41-305.7,8.12c-30.82,0.82-63.92,0.84-89.35-20.98
	c-28.13-24.12-39.5-68.61-46.67-110.31c-21.62-125.69-34.13-297.76,8.88-419.37C-113.53,299.36,14.58,325.72,37.59,433.5z"/>
</svg>
