<?xml version="1.0" encoding="utf-8"?>
<!-- Generator: Adobe Illustrator 24.1.0, SVG Export Plug-In . SVG Version: 6.00 Build 0)  -->
<svg version="1.1" id="Layer_1" xmlns="http://www.w3.org/2000/svg" xmlns:xlink="http://www.w3.org/1999/xlink" x="0px" y="0px"
	 viewBox="0 0 920.58 841.89" style="enable-background:new 0 0 920.58 841.89;" xml:space="preserve">
<style type="text/css">
	.st0{fill:#98D2D2;}
</style>
<path class="st0" d="M183.51,243.47c94.94,0.04,169.29-100.04,241.24-97.06c71.94,2.98,115.44,54.4,177.88,21.18
	c46.28-24.62,75.69-54.19,125.44-72.11c36.68-13.22,83.69,6.88,123.03,5.76c39.34-1.12,73.85-24.15,107.34-43.3
	s56.45-58.82,42.29-92.83C981.91-80.1,917.21-87.23,864.87-87c-242.44,1.03-484.88,2.06-727.32,3.09
	C63.71-83.6-17.85-80.56-71.44-33.53c-54.31,47.65-61.98,69.33-37.46,134.78c15.42,41.14,73.6,34.96,109.73,74.82
	C57,209.89,125.61,243.44,183.51,243.47z"/>
</svg>
