<?xml version="1.0" encoding="utf-8"?>
<!-- Generator: Adobe Illustrator 24.1.0, SVG Export Plug-In . SVG Version: 6.00 Build 0)  -->
<svg version="1.1" id="Layer_1" xmlns="http://www.w3.org/2000/svg" xmlns:xlink="http://www.w3.org/1999/xlink" x="0px" y="0px"
	 viewBox="0 0 582 840.67" style="enable-background:new 0 0 582 840.67;" xml:space="preserve">
<style type="text/css">
	.st0{fill:#FFFFFF;}
	.st1{fill:none;}
	.st2{fill:#F59193;}
</style>
<rect y="0" class="st0" width="582" height="840.67"/>
<g>
	<rect y="21.96" class="st1" width="582" height="840.67"/>
</g>
<rect y="24" class="st1" width="582" height="840.67"/>
<path class="st2" d="M184.57,13.64C311.64-1.87,460.18,33.7,572.47,2.42c115.31-32.13,108.65-110.39,187.85-160.38
	c72.18-45.55,203.3-60.75,323.51-72.81c4.73,101.9,9.47,203.8,14.2,305.7c1.43,30.82,1.47,63.92-36.71,89.35
	c-42.2,28.13-120.05,39.5-193.01,46.67c-219.93,21.62-521.02,34.13-733.82-8.88C-50.14,164.76-4.02,36.65,184.57,13.64z"/>
</svg>
