<?xml version="1.0" encoding="utf-8"?>
<!-- Generator: Adobe Illustrator 24.1.0, SVG Export Plug-In . SVG Version: 6.00 Build 0)  -->
<svg version="1.1" id="Layer_1" xmlns="http://www.w3.org/2000/svg" xmlns:xlink="http://www.w3.org/1999/xlink" x="0px" y="0px"
	 viewBox="0 0 582 840.67" style="enable-background:new 0 0 582 840.67;" xml:space="preserve">
<style type="text/css">
	.st0{fill:#FFFFFF;}
	.st1{fill:none;}
	.st2{fill:#F59193;}
</style>
<rect y="0" class="st0" width="582" height="840.67"/>
<g>
	<rect y="21.96" class="st1" width="582" height="840.67"/>
</g>
<rect y="24" class="st1" width="582" height="840.67"/>
<path class="st2" d="M39.72-20.17C135.7-72.9,345.61-0.78,456.29-37.34C569.95-74.89,559.6-152.74,636.34-206.43
	c69.94-48.91,200.2-70.3,319.7-88.03c9.55,101.56,19.1,203.12,28.65,304.69c2.89,30.72,4.49,63.78-32.44,90.99
	c-40.82,30.1-118.05,45.14-190.59,55.75c-218.66,32-518.82,58.74-733.42,25.85C-157.94,154.28-56.64,138.17,39.72-20.17z"/>
</svg>
